<?xml version="1.0" encoding="utf-8" standalone="no"?>
<!DOCTYPE svg PUBLIC "-//W3C//DTD SVG 1.1//EN"
  "http://www.w3.org/Graphics/SVG/1.1/DTD/svg11.dtd">
<svg xmlns:xlink="http://www.w3.org/1999/xlink" width="504.566929pt" height="411.023622pt" viewBox="0 0 504.566929 411.023622" xmlns="http://www.w3.org/2000/svg" version="1.1">
 <metadata>
  <rdf:RDF xmlns:dc="http://purl.org/dc/elements/1.1/" xmlns:cc="http://creativecommons.org/ns#" xmlns:rdf="http://www.w3.org/1999/02/22-rdf-syntax-ns#">
   <cc:Work>
    <dc:type rdf:resource="http://purl.org/dc/dcmitype/StillImage"/>
    <dc:format>image/svg+xml</dc:format>
    <dc:creator>
     <cc:Agent>
      <dc:title>Matplotlib v3.10.8, https://matplotlib.org/</dc:title>
     </cc:Agent>
    </dc:creator>
   </cc:Work>
  </rdf:RDF>
 </metadata>
 <defs>
  <style type="text/css">*{stroke-linejoin: round; stroke-linecap: butt}</style>
 </defs>
 <g id="figure_1">
  <g id="patch_1">
   <path d="M 0 411.023622
L 504.566929 411.023622
L 504.566929 0
L 0 0
z
" style="fill: #ffffff"/>
  </g>
  <g id="axes_1">
   <g id="patch_2">
    <path d="M 55.502362 175.773043
L 494.475591 175.773043
L 494.475591 45.212598
L 55.502362 45.212598
z
" style="fill: #ffffff"/>
   </g>
   <g id="matplotlib.axis_1">
    <g id="xtick_1">
     <g id="line2d_1">
      <defs>
       <path id="m737213328d" d="M 0 0
L 0 3
" style="stroke: #1f2a30; stroke-width: 0.65"/>
      </defs>
      <g>
       <use xlink:href="#m737213328d" x="55.502362" y="175.773043" style="fill: #1f2a30; stroke: #1f2a30; stroke-width: 0.65"/>
      </g>
     </g>
     <g id="text_1">
      <text style="font-size: 9px; font-family: 'Malgun Gothic'; text-anchor: middle; fill: #1f2a30" x="55.502362" y="189.106012" transform="rotate(-0 55.502362 189.106012)">Jan 2026</text>
     </g>
    </g>
    <g id="xtick_2">
     <g id="line2d_2">
      <g>
       <use xlink:href="#m737213328d" x="156.278317" y="175.773043" style="fill: #1f2a30; stroke: #1f2a30; stroke-width: 0.65"/>
      </g>
     </g>
     <g id="text_2">
      <text style="font-size: 9px; font-family: 'Malgun Gothic'; text-anchor: middle; fill: #1f2a30" x="156.278317" y="189.106012" transform="rotate(-0 156.278317 189.106012)">Mar 2026</text>
     </g>
    </g>
    <g id="xtick_3">
     <g id="line2d_3">
      <g>
       <use xlink:href="#m737213328d" x="260.470407" y="175.773043" style="fill: #1f2a30; stroke: #1f2a30; stroke-width: 0.65"/>
      </g>
     </g>
     <g id="text_3">
      <text style="font-size: 9px; font-family: 'Malgun Gothic'; text-anchor: middle; fill: #1f2a30" x="260.470407" y="189.058199" transform="rotate(-0 260.470407 189.058199)">May 2026</text>
     </g>
    </g>
    <g id="xtick_4">
     <g id="line2d_4">
      <g>
       <use xlink:href="#m737213328d" x="364.662496" y="175.773043" style="fill: #1f2a30; stroke: #1f2a30; stroke-width: 0.65"/>
      </g>
     </g>
     <g id="text_4">
      <text style="font-size: 9px; font-family: 'Malgun Gothic'; text-anchor: middle; fill: #1f2a30" x="364.662496" y="189.106012" transform="rotate(-0 364.662496 189.106012)">Jul 2026</text>
     </g>
    </g>
    <g id="xtick_5">
     <g id="line2d_5">
      <g>
       <use xlink:href="#m737213328d" x="470.562652" y="175.773043" style="fill: #1f2a30; stroke: #1f2a30; stroke-width: 0.65"/>
      </g>
     </g>
     <g id="text_5">
      <text style="font-size: 9px; font-family: 'Malgun Gothic'; text-anchor: middle; fill: #1f2a30" x="470.562652" y="189.106012" transform="rotate(-0 470.562652 189.106012)">Sep 2026</text>
     </g>
    </g>
   </g>
   <g id="matplotlib.axis_2">
    <g id="ytick_1">
     <g id="line2d_6">
      <path d="M 55.502362 175.508878
L 494.475591 175.508878
" clip-path="url(#paaf070b288)" style="fill: none; stroke: #e6eaec; stroke-width: 0.45; stroke-linecap: square"/>
     </g>
     <g id="line2d_7">
      <defs>
       <path id="m78edf6be4a" d="M 0 0
L -3 0
" style="stroke: #1f2a30; stroke-width: 0.65"/>
      </defs>
      <g>
       <use xlink:href="#m78edf6be4a" x="55.502362" y="175.508878" style="fill: #1f2a30; stroke: #1f2a30; stroke-width: 0.65"/>
      </g>
     </g>
     <g id="text_6">
      <text style="font-size: 9px; font-family: 'Malgun Gothic'; text-anchor: end; fill: #1f2a30" x="49.002362" y="178.925362" transform="rotate(-0 49.002362 178.925362)">-1.0</text>
     </g>
    </g>
    <g id="ytick_2">
     <g id="line2d_8">
      <path d="M 55.502362 156.666194
L 494.475591 156.666194
" clip-path="url(#paaf070b288)" style="fill: none; stroke: #e6eaec; stroke-width: 0.45; stroke-linecap: square"/>
     </g>
     <g id="line2d_9">
      <g>
       <use xlink:href="#m78edf6be4a" x="55.502362" y="156.666194" style="fill: #1f2a30; stroke: #1f2a30; stroke-width: 0.65"/>
      </g>
     </g>
     <g id="text_7">
      <text style="font-size: 9px; font-family: 'Malgun Gothic'; text-anchor: end; fill: #1f2a30" x="49.002362" y="160.082678" transform="rotate(-0 49.002362 160.082678)">-0.5</text>
     </g>
    </g>
    <g id="ytick_3">
     <g id="line2d_10">
      <path d="M 55.502362 137.82351
L 494.475591 137.82351
" clip-path="url(#paaf070b288)" style="fill: none; stroke: #e6eaec; stroke-width: 0.45; stroke-linecap: square"/>
     </g>
     <g id="line2d_11">
      <g>
       <use xlink:href="#m78edf6be4a" x="55.502362" y="137.82351" style="fill: #1f2a30; stroke: #1f2a30; stroke-width: 0.65"/>
      </g>
     </g>
     <g id="text_8">
      <text style="font-size: 9px; font-family: 'Malgun Gothic'; text-anchor: end; fill: #1f2a30" x="49.002362" y="141.239994" transform="rotate(-0 49.002362 141.239994)">0.0</text>
     </g>
    </g>
    <g id="ytick_4">
     <g id="line2d_12">
      <path d="M 55.502362 118.980826
L 494.475591 118.980826
" clip-path="url(#paaf070b288)" style="fill: none; stroke: #e6eaec; stroke-width: 0.45; stroke-linecap: square"/>
     </g>
     <g id="line2d_13">
      <g>
       <use xlink:href="#m78edf6be4a" x="55.502362" y="118.980826" style="fill: #1f2a30; stroke: #1f2a30; stroke-width: 0.65"/>
      </g>
     </g>
     <g id="text_9">
      <text style="font-size: 9px; font-family: 'Malgun Gothic'; text-anchor: end; fill: #1f2a30" x="49.002362" y="122.397311" transform="rotate(-0 49.002362 122.397311)">0.5</text>
     </g>
    </g>
    <g id="ytick_5">
     <g id="line2d_14">
      <path d="M 55.502362 100.138142
L 494.475591 100.138142
" clip-path="url(#paaf070b288)" style="fill: none; stroke: #e6eaec; stroke-width: 0.45; stroke-linecap: square"/>
     </g>
     <g id="line2d_15">
      <g>
       <use xlink:href="#m78edf6be4a" x="55.502362" y="100.138142" style="fill: #1f2a30; stroke: #1f2a30; stroke-width: 0.65"/>
      </g>
     </g>
     <g id="text_10">
      <text style="font-size: 9px; font-family: 'Malgun Gothic'; text-anchor: end; fill: #1f2a30" x="49.002362" y="103.554627" transform="rotate(-0 49.002362 103.554627)">1.0</text>
     </g>
    </g>
    <g id="ytick_6">
     <g id="line2d_16">
      <path d="M 55.502362 81.295458
L 494.475591 81.295458
" clip-path="url(#paaf070b288)" style="fill: none; stroke: #e6eaec; stroke-width: 0.45; stroke-linecap: square"/>
     </g>
     <g id="line2d_17">
      <g>
       <use xlink:href="#m78edf6be4a" x="55.502362" y="81.295458" style="fill: #1f2a30; stroke: #1f2a30; stroke-width: 0.65"/>
      </g>
     </g>
     <g id="text_11">
      <text style="font-size: 9px; font-family: 'Malgun Gothic'; text-anchor: end; fill: #1f2a30" x="49.002362" y="84.711943" transform="rotate(-0 49.002362 84.711943)">1.5</text>
     </g>
    </g>
    <g id="ytick_7">
     <g id="line2d_18">
      <path d="M 55.502362 62.452774
L 494.475591 62.452774
" clip-path="url(#paaf070b288)" style="fill: none; stroke: #e6eaec; stroke-width: 0.45; stroke-linecap: square"/>
     </g>
     <g id="line2d_19">
      <g>
       <use xlink:href="#m78edf6be4a" x="55.502362" y="62.452774" style="fill: #1f2a30; stroke: #1f2a30; stroke-width: 0.65"/>
      </g>
     </g>
     <g id="text_12">
      <text style="font-size: 9px; font-family: 'Malgun Gothic'; text-anchor: end; fill: #1f2a30" x="49.002362" y="65.869259" transform="rotate(-0 49.002362 65.869259)">2.0</text>
     </g>
    </g>
    <g id="text_13">
     <text style="font-size: 10px; font-family: 'Malgun Gothic'; text-anchor: middle" x="27.064081" y="110.492821" transform="rotate(-90 27.064081 110.492821)">점수 차이</text>
    </g>
   </g>
   <g id="FillBetweenPolyCollection_1">
    <path d="M 75.999167 137.82351
L 75.999167 138.80102
L 75.999167 137.82351
L 75.999167 137.82351
z
" clip-path="url(#paaf070b288)" style="fill: #b8702f; fill-opacity: 0.12; stroke: #b8702f; stroke-opacity: 0.12"/>
    <path d="M 87.955636 137.82351
L 87.955636 138.857612
L 89.663703 144.057242
L 91.37177 147.274084
L 93.079837 165.674353
L 98.204038 169.838477
L 99.912105 143.435398
L 101.620172 146.062153
L 103.328239 148.614339
L 103.328239 137.82351
L 103.328239 137.82351
L 101.620172 137.82351
L 99.912105 137.82351
L 98.204038 137.82351
L 93.079837 137.82351
L 91.37177 137.82351
L 89.663703 137.82351
L 87.955636 137.82351
z
" clip-path="url(#paaf070b288)" style="fill: #b8702f; fill-opacity: 0.12; stroke: #b8702f; stroke-opacity: 0.12"/>
   </g>
   <g id="line2d_20">
    <path d="M 57.210429 121.295064
L 62.33463 130.903535
L 64.042697 136.602695
L 65.750764 130.332247
L 67.458831 127.368319
L 69.166898 133.654593
L 74.2911 135.01761
L 75.999167 138.80102
L 77.707234 135.849639
L 79.415301 134.044817
L 81.123368 125.50212
L 86.247569 132.480654
L 87.955636 138.857612
L 89.663703 144.057242
L 91.37177 147.274084
L 93.079837 165.674353
L 98.204038 169.838477
L 99.912105 143.435398
L 103.328239 148.614339
L 105.036306 99.65613
L 110.160507 93.630221
L 111.868574 107.914598
L 113.576641 111.195231
L 115.284708 80.691946
L 116.992776 87.549637
L 122.116977 94.093507
L 123.825044 95.846316
L 125.533111 95.473383
L 127.241178 89.204449
L 128.949245 81.839879
L 134.073446 76.7101
L 135.781513 76.937288
L 137.48958 79.775739
L 139.197647 76.27304
L 140.905714 78.50978
L 146.029915 72.908427
L 147.737982 61.586183
L 149.446049 75.576118
L 151.154116 74.912954
L 152.862183 88.464288
L 157.986384 78.332168
L 159.694451 57.925309
L 161.402518 75.92453
L 163.110585 74.650625
L 164.818653 69.031317
L 169.942854 72.128941
L 171.650921 77.97187
L 173.358988 78.081289
L 175.067055 76.495862
L 176.775122 68.568642
L 181.899323 71.465905
L 183.60739 75.454762
L 185.315457 64.899199
L 187.023524 52.559833
L 188.731591 66.68183
L 193.855792 62.17809
L 195.563859 60.026465
L 197.271926 67.678793
L 198.979993 57.213065
L 200.68806 53.274357
L 205.812261 71.4236
L 207.520328 77.01335
L 209.228395 84.232542
L 210.936463 77.254008
L 219.476798 79.660406
L 221.184865 94.970665
L 222.892932 91.872952
L 224.600999 92.230384
L 229.7252 95.078502
L 233.141334 105.825946
L 234.849401 106.506784
L 236.557468 103.724285
L 241.681669 97.051127
L 243.389736 95.494655
L 245.097803 96.45251
L 246.80587 89.987192
L 248.513937 89.303253
L 253.638138 89.320731
L 255.346205 84.459948
L 257.054272 77.047195
L 258.76234 85.675733
L 260.470407 88.819594
L 267.302675 89.338385
L 269.010742 94.223595
L 270.718809 102.528434
L 272.426876 95.786225
L 277.551077 104.070289
L 279.259144 104.801247
L 280.967211 108.334179
L 282.675278 101.999273
L 284.383345 90.215432
L 289.507546 91.964985
L 291.215613 88.289164
L 292.92368 89.930502
L 294.631747 90.32962
L 296.339814 99.368839
L 303.172082 103.564577
L 304.88015 105.799509
L 306.588217 105.316781
L 308.296284 116.306407
L 313.420485 117.214877
L 315.128552 128.205416
L 316.836619 128.091926
L 318.544686 130.087811
L 320.252753 130.458407
L 325.376954 116.313168
L 327.085021 118.742437
L 328.793088 104.774246
L 330.501155 105.077927
L 332.209222 110.240086
L 337.333423 124.663769
L 339.04149 124.360088
L 340.749557 121.323516
L 344.165691 101.585864
L 349.289892 105.229738
L 350.997959 102.296025
L 352.706027 95.233743
L 354.414094 99.116286
L 356.122161 102.093812
L 361.246362 98.332684
L 362.954429 95.668548
L 364.662496 92.560453
L 366.370563 92.094054
L 368.07863 97.192633
L 373.202831 91.608409
L 374.910898 92.421562
L 376.618965 84.758903
L 378.327032 89.054807
L 380.035099 89.96892
L 385.1593 92.993758
L 386.867367 94.343403
L 388.575434 96.742751
L 390.283501 95.128285
L 391.991568 79.317392
L 397.115769 84.610786
L 398.823837 89.054807
L 400.531904 94.831993
L 402.239971 86.980942
L 403.948038 82.703879
L 409.072239 88.298912
L 410.780306 84.470704
L 412.488373 82.8511
L 414.19644 87.70997
L 415.904507 89.329574
L 421.028708 87.121028
L 422.736775 98.995064
L 424.444842 95.200974
L 426.152909 93.729583
L 427.860976 95.205831
L 432.985177 93.520529
L 434.693244 95.318844
L 436.401311 96.378317
L 438.109378 86.624476
L 439.817445 88.833381
L 444.941646 91.732538
L 446.649714 90.075846
L 448.357781 93.66531
L 450.065848 97.806986
L 451.773915 110.370054
L 456.898116 110.23196
L 458.606183 103.053087
L 460.31425 105.317293
L 462.022317 99.287385
L 463.730384 106.408878
L 470.562652 82.60946
L 472.270719 77.999324
L 473.978786 80.755218
L 475.686853 80.41038
L 480.811054 81.949237
L 482.519121 81.481778
L 484.227188 87.806024
L 485.935255 72.315412
L 487.643322 73.67639
L 487.643322 73.67639
" clip-path="url(#paaf070b288)" style="fill: none; stroke: #1b6f78; stroke-width: 1.7; stroke-linecap: square"/>
   </g>
   <g id="line2d_21">
    <path d="M 57.210429 122.749363
L 62.33463 130.286436
L 64.042697 134.054973
L 67.458831 126.5179
L 69.166898 134.054973
L 74.2911 134.054973
L 75.999167 137.82351
L 77.707234 134.054973
L 79.415301 134.054973
L 81.123368 126.5179
L 86.247569 134.054973
L 91.37177 145.360584
L 93.079837 164.203268
L 98.204038 167.971804
L 99.912105 141.592047
L 103.328239 149.12912
L 105.036306 100.138142
L 110.160507 92.601069
L 111.868574 107.675216
L 113.576641 111.443753
L 115.284708 81.295458
L 116.992776 88.832532
L 122.116977 92.601069
L 123.825044 96.369605
L 125.533111 96.369605
L 128.949245 81.295458
L 134.073446 77.526922
L 135.781513 77.526922
L 137.48958 81.295458
L 139.197647 77.526922
L 140.905714 77.526922
L 146.029915 73.758385
L 147.737982 62.452774
L 149.446049 73.758385
L 151.154116 73.758385
L 152.862183 88.832532
L 157.986384 77.526922
L 159.694451 58.684238
L 161.402518 77.526922
L 164.818653 69.989848
L 169.942854 69.989848
L 171.650921 77.526922
L 175.067055 77.526922
L 176.775122 69.989848
L 181.899323 69.989848
L 183.60739 77.526922
L 185.315457 66.221311
L 187.023524 51.147164
L 188.731591 66.221311
L 193.855792 62.452774
L 195.563859 58.684238
L 197.271926 69.989848
L 198.979993 58.684238
L 200.68806 54.915701
L 205.812261 69.989848
L 209.228395 85.063995
L 210.936463 77.526922
L 219.476798 77.526922
L 221.184865 96.369605
L 222.892932 92.601069
L 224.600999 92.601069
L 229.7252 96.369605
L 231.433267 100.138142
L 233.141334 107.675216
L 234.849401 107.675216
L 236.557468 103.906679
L 241.681669 96.369605
L 245.097803 96.369605
L 246.80587 88.832532
L 253.638138 88.832532
L 255.346205 85.063995
L 257.054272 77.526922
L 258.76234 85.063995
L 260.470407 88.832532
L 267.302675 88.832532
L 269.010742 92.601069
L 270.718809 103.906679
L 272.426876 96.369605
L 277.551077 103.906679
L 279.259144 103.906679
L 280.967211 107.675216
L 282.675278 100.138142
L 284.383345 88.832532
L 289.507546 92.601069
L 291.215613 88.832532
L 292.92368 88.832532
L 294.631747 92.601069
L 296.339814 100.138142
L 303.172082 103.906679
L 304.88015 107.675216
L 306.588217 103.906679
L 308.296284 115.212289
L 313.420485 115.212289
L 315.128552 130.286436
L 320.252753 130.286436
L 325.376954 115.212289
L 327.085021 118.980826
L 328.793088 103.906679
L 330.501155 103.906679
L 332.209222 111.443753
L 337.333423 122.749363
L 340.749557 122.749363
L 344.165691 100.138142
L 349.289892 103.906679
L 352.706027 96.369605
L 354.414094 100.138142
L 361.246362 100.138142
L 364.662496 92.601069
L 366.370563 92.601069
L 368.07863 96.369605
L 373.202831 92.601069
L 374.910898 92.601069
L 376.618965 85.063995
L 378.327032 88.832532
L 380.035099 88.832532
L 385.1593 92.601069
L 386.867367 92.601069
L 388.575434 96.369605
L 390.283501 96.369605
L 391.991568 77.526922
L 397.115769 85.063995
L 398.823837 88.832532
L 400.531904 96.369605
L 402.239971 85.063995
L 403.948038 81.295458
L 409.072239 88.832532
L 410.780306 85.063995
L 412.488373 85.063995
L 414.19644 88.832532
L 415.904507 88.832532
L 421.028708 85.063995
L 422.736775 100.138142
L 426.152909 92.601069
L 427.860976 96.369605
L 432.985177 92.601069
L 434.693244 96.369605
L 436.401311 96.369605
L 438.109378 85.063995
L 439.817445 88.832532
L 444.941646 92.601069
L 446.649714 88.832532
L 448.357781 92.601069
L 450.065848 100.138142
L 451.773915 111.443753
L 456.898116 111.443753
L 458.606183 103.906679
L 460.31425 103.906679
L 462.022317 100.138142
L 463.730384 107.675216
L 470.562652 81.295458
L 472.270719 77.526922
L 473.978786 81.295458
L 482.519121 81.295458
L 484.227188 88.832532
L 485.935255 73.758385
L 487.643322 73.758385
L 487.643322 73.758385
" clip-path="url(#paaf070b288)" style="fill: none; stroke-dasharray: 4.07,1.76; stroke-dashoffset: 0; stroke: #b8702f; stroke-width: 1.1"/>
   </g>
   <g id="line2d_22">
    <path d="M 55.502362 137.82351
L 494.475591 137.82351
" clip-path="url(#paaf070b288)" style="fill: none; stroke: #1f2a30; stroke-width: 0.8; stroke-linecap: square"/>
   </g>
   <g id="patch_3">
    <path d="M 55.502362 175.773043
L 55.502362 45.212598
" style="fill: none; stroke: #1f2a30; stroke-width: 0.65; stroke-linejoin: miter; stroke-linecap: square"/>
   </g>
   <g id="patch_4">
    <path d="M 494.475591 175.773043
L 494.475591 45.212598
" style="fill: none; stroke: #1f2a30; stroke-width: 0.65; stroke-linejoin: miter; stroke-linecap: square"/>
   </g>
   <g id="patch_5">
    <path d="M 55.502362 175.773043
L 494.475591 175.773043
" style="fill: none; stroke: #1f2a30; stroke-width: 0.65; stroke-linejoin: miter; stroke-linecap: square"/>
   </g>
   <g id="patch_6">
    <path d="M 55.502362 45.212598
L 494.475591 45.212598
" style="fill: none; stroke: #1f2a30; stroke-width: 0.65; stroke-linejoin: miter; stroke-linecap: square"/>
   </g>
   <g id="text_14">
    <!-- Pt/TiO$_2$ $-$ TiO$_2$ -->
    <g style="fill: #1f2a30" transform="translate(431.585591 38.684576)">
     <text>
      <tspan x="0" y="-0.5" style="font-size: 9.5px; font-family: 'Malgun Gothic'; fill: #1f2a30">P</tspan>
      <tspan x="5.422607" y="-0.5" style="font-size: 9.5px; font-family: 'Malgun Gothic'; fill: #1f2a30">t</tspan>
      <tspan x="8.69751" y="-0.5" style="font-size: 9.5px; font-family: 'Malgun Gothic'; fill: #1f2a30">/</tspan>
      <tspan x="12.459473" y="-0.5" style="font-size: 9.5px; font-family: 'Malgun Gothic'; fill: #1f2a30">T</tspan>
      <tspan x="17.529541" y="-0.5" style="font-size: 9.5px; font-family: 'Malgun Gothic'; fill: #1f2a30">i</tspan>
      <tspan x="19.867432" y="-0.5" style="font-size: 9.5px; font-family: 'Malgun Gothic'; fill: #1f2a30">O</tspan>
      <tspan x="31.551946" y="-0.5" style="font-size: 9.5px; font-family: 'Malgun Gothic'; fill: #1f2a30"> </tspan>
      <tspan x="40.439641" y="-0.5" style="font-size: 9.5px; font-family: 'Malgun Gothic'; fill: #1f2a30"> </tspan>
      <tspan x="43.779485" y="-0.5" style="font-size: 9.5px; font-family: 'Malgun Gothic'; fill: #1f2a30">T</tspan>
      <tspan x="48.849553" y="-0.5" style="font-size: 9.5px; font-family: 'Malgun Gothic'; fill: #1f2a30">i</tspan>
      <tspan x="51.187444" y="-0.5" style="font-size: 9.5px; font-family: 'Malgun Gothic'; fill: #1f2a30">O</tspan>
      <tspan x="27.380611" y="2.337531" style="font-size: 6.65px; font-family: 'Arial'; fill: #1f2a30">2</tspan>
      <tspan x="58.700622" y="2.337531" style="font-size: 6.65px; font-family: 'Arial'; fill: #1f2a30">2</tspan>
      <tspan x="34.891789" y="-0.5" style="font-size: 9.5px; font-family: 'Arial'; fill: #1f2a30">−</tspan>
     </text>
    </g>
   </g>
   <g id="text_15">
    <text style="font-size: 10.5px; font-family: 'Malgun Gothic'; text-anchor: start; fill: #1f2a30" x="55.502362" y="35.212598" transform="rotate(-0 55.502362 35.212598)">(a) 광촉매 물분해</text>
   </g>
  </g>
  <g id="axes_2">
   <g id="patch_7">
    <path d="M 55.502362 378.141732
L 494.475591 378.141732
L 494.475591 247.581288
L 55.502362 247.581288
z
" style="fill: #ffffff"/>
   </g>
   <g id="matplotlib.axis_3">
    <g id="xtick_6">
     <g id="line2d_23">
      <g>
       <use xlink:href="#m737213328d" x="55.502362" y="378.141732" style="fill: #1f2a30; stroke: #1f2a30; stroke-width: 0.65"/>
      </g>
     </g>
     <g id="text_16">
      <text style="font-size: 9px; font-family: 'Malgun Gothic'; text-anchor: middle; fill: #1f2a30" x="55.502362" y="391.474701" transform="rotate(-0 55.502362 391.474701)">Jan 2026</text>
     </g>
    </g>
    <g id="xtick_7">
     <g id="line2d_24">
      <g>
       <use xlink:href="#m737213328d" x="156.278317" y="378.141732" style="fill: #1f2a30; stroke: #1f2a30; stroke-width: 0.65"/>
      </g>
     </g>
     <g id="text_17">
      <text style="font-size: 9px; font-family: 'Malgun Gothic'; text-anchor: middle; fill: #1f2a30" x="156.278317" y="391.474701" transform="rotate(-0 156.278317 391.474701)">Mar 2026</text>
     </g>
    </g>
    <g id="xtick_8">
     <g id="line2d_25">
      <g>
       <use xlink:href="#m737213328d" x="260.470407" y="378.141732" style="fill: #1f2a30; stroke: #1f2a30; stroke-width: 0.65"/>
      </g>
     </g>
     <g id="text_18">
      <text style="font-size: 9px; font-family: 'Malgun Gothic'; text-anchor: middle; fill: #1f2a30" x="260.470407" y="391.426889" transform="rotate(-0 260.470407 391.426889)">May 2026</text>
     </g>
    </g>
    <g id="xtick_9">
     <g id="line2d_26">
      <g>
       <use xlink:href="#m737213328d" x="364.662496" y="378.141732" style="fill: #1f2a30; stroke: #1f2a30; stroke-width: 0.65"/>
      </g>
     </g>
     <g id="text_19">
      <text style="font-size: 9px; font-family: 'Malgun Gothic'; text-anchor: middle; fill: #1f2a30" x="364.662496" y="391.474701" transform="rotate(-0 364.662496 391.474701)">Jul 2026</text>
     </g>
    </g>
    <g id="xtick_10">
     <g id="line2d_27">
      <g>
       <use xlink:href="#m737213328d" x="470.562652" y="378.141732" style="fill: #1f2a30; stroke: #1f2a30; stroke-width: 0.65"/>
      </g>
     </g>
     <g id="text_20">
      <text style="font-size: 9px; font-family: 'Malgun Gothic'; text-anchor: middle; fill: #1f2a30" x="470.562652" y="391.474701" transform="rotate(-0 470.562652 391.474701)">Sep 2026</text>
     </g>
    </g>
   </g>
   <g id="matplotlib.axis_4">
    <g id="ytick_8">
     <g id="line2d_28">
      <path d="M 55.502362 376.163544
L 494.475591 376.163544
" clip-path="url(#pdf4d5c2543)" style="fill: none; stroke: #e6eaec; stroke-width: 0.45; stroke-linecap: square"/>
     </g>
     <g id="line2d_29">
      <g>
       <use xlink:href="#m78edf6be4a" x="55.502362" y="376.163544" style="fill: #1f2a30; stroke: #1f2a30; stroke-width: 0.65"/>
      </g>
     </g>
     <g id="text_21">
      <text style="font-size: 9px; font-family: 'Malgun Gothic'; text-anchor: end; fill: #1f2a30" x="49.002362" y="379.580028" transform="rotate(-0 49.002362 379.580028)">-2.5</text>
     </g>
    </g>
    <g id="ytick_9">
     <g id="line2d_30">
      <path d="M 55.502362 356.381658
L 494.475591 356.381658
" clip-path="url(#pdf4d5c2543)" style="fill: none; stroke: #e6eaec; stroke-width: 0.45; stroke-linecap: square"/>
     </g>
     <g id="line2d_31">
      <g>
       <use xlink:href="#m78edf6be4a" x="55.502362" y="356.381658" style="fill: #1f2a30; stroke: #1f2a30; stroke-width: 0.65"/>
      </g>
     </g>
     <g id="text_22">
      <text style="font-size: 9px; font-family: 'Malgun Gothic'; text-anchor: end; fill: #1f2a30" x="49.002362" y="359.798143" transform="rotate(-0 49.002362 359.798143)">-2.0</text>
     </g>
    </g>
    <g id="ytick_10">
     <g id="line2d_32">
      <path d="M 55.502362 336.599773
L 494.475591 336.599773
" clip-path="url(#pdf4d5c2543)" style="fill: none; stroke: #e6eaec; stroke-width: 0.45; stroke-linecap: square"/>
     </g>
     <g id="line2d_33">
      <g>
       <use xlink:href="#m78edf6be4a" x="55.502362" y="336.599773" style="fill: #1f2a30; stroke: #1f2a30; stroke-width: 0.65"/>
      </g>
     </g>
     <g id="text_23">
      <text style="font-size: 9px; font-family: 'Malgun Gothic'; text-anchor: end; fill: #1f2a30" x="49.002362" y="340.016257" transform="rotate(-0 49.002362 340.016257)">-1.5</text>
     </g>
    </g>
    <g id="ytick_11">
     <g id="line2d_34">
      <path d="M 55.502362 316.817887
L 494.475591 316.817887
" clip-path="url(#pdf4d5c2543)" style="fill: none; stroke: #e6eaec; stroke-width: 0.45; stroke-linecap: square"/>
     </g>
     <g id="line2d_35">
      <g>
       <use xlink:href="#m78edf6be4a" x="55.502362" y="316.817887" style="fill: #1f2a30; stroke: #1f2a30; stroke-width: 0.65"/>
      </g>
     </g>
     <g id="text_24">
      <text style="font-size: 9px; font-family: 'Malgun Gothic'; text-anchor: end; fill: #1f2a30" x="49.002362" y="320.234371" transform="rotate(-0 49.002362 320.234371)">-1.0</text>
     </g>
    </g>
    <g id="ytick_12">
     <g id="line2d_36">
      <path d="M 55.502362 297.036002
L 494.475591 297.036002
" clip-path="url(#pdf4d5c2543)" style="fill: none; stroke: #e6eaec; stroke-width: 0.45; stroke-linecap: square"/>
     </g>
     <g id="line2d_37">
      <g>
       <use xlink:href="#m78edf6be4a" x="55.502362" y="297.036002" style="fill: #1f2a30; stroke: #1f2a30; stroke-width: 0.65"/>
      </g>
     </g>
     <g id="text_25">
      <text style="font-size: 9px; font-family: 'Malgun Gothic'; text-anchor: end; fill: #1f2a30" x="49.002362" y="300.452486" transform="rotate(-0 49.002362 300.452486)">-0.5</text>
     </g>
    </g>
    <g id="ytick_13">
     <g id="line2d_38">
      <path d="M 55.502362 277.254116
L 494.475591 277.254116
" clip-path="url(#pdf4d5c2543)" style="fill: none; stroke: #e6eaec; stroke-width: 0.45; stroke-linecap: square"/>
     </g>
     <g id="line2d_39">
      <g>
       <use xlink:href="#m78edf6be4a" x="55.502362" y="277.254116" style="fill: #1f2a30; stroke: #1f2a30; stroke-width: 0.65"/>
      </g>
     </g>
     <g id="text_26">
      <text style="font-size: 9px; font-family: 'Malgun Gothic'; text-anchor: end; fill: #1f2a30" x="49.002362" y="280.6706" transform="rotate(-0 49.002362 280.6706)">0.0</text>
     </g>
    </g>
    <g id="ytick_14">
     <g id="line2d_40">
      <path d="M 55.502362 257.47223
L 494.475591 257.47223
" clip-path="url(#pdf4d5c2543)" style="fill: none; stroke: #e6eaec; stroke-width: 0.45; stroke-linecap: square"/>
     </g>
     <g id="line2d_41">
      <g>
       <use xlink:href="#m78edf6be4a" x="55.502362" y="257.47223" style="fill: #1f2a30; stroke: #1f2a30; stroke-width: 0.65"/>
      </g>
     </g>
     <g id="text_27">
      <text style="font-size: 9px; font-family: 'Malgun Gothic'; text-anchor: end; fill: #1f2a30" x="49.002362" y="260.888715" transform="rotate(-0 49.002362 260.888715)">0.5</text>
     </g>
    </g>
    <g id="text_28">
     <text style="font-size: 10px; font-family: 'Malgun Gothic'; text-anchor: middle" x="27.064081" y="312.86151" transform="rotate(-90 27.064081 312.86151)">점수 차이</text>
    </g>
   </g>
   <g id="FillBetweenPolyCollection_2">
    <path d="M 57.210429 277.254116
L 57.210429 310.310233
L 62.33463 321.155463
L 64.042697 330.421764
L 65.750764 323.467475
L 67.458831 317.444735
L 69.166898 323.748191
L 74.2911 328.101436
L 75.999167 332.090487
L 77.707234 333.203031
L 79.415301 331.815062
L 81.123368 325.234094
L 86.247569 330.614724
L 87.955636 335.529852
L 89.663703 341.842512
L 91.37177 344.354545
L 93.079837 361.137818
L 98.204038 371.891692
L 99.912105 354.549677
L 101.620172 358.445515
L 103.328239 371.039383
L 105.036306 323.925162
L 110.160507 309.2782
L 111.868574 320.773057
L 113.576641 323.928518
L 115.284708 297.501224
L 116.992776 301.582557
L 122.116977 306.773731
L 123.825044 308.16461
L 125.533111 310.753082
L 127.241178 308.530994
L 128.949245 303.441286
L 134.073446 298.337964
L 135.781513 298.528974
L 137.48958 304.464953
L 139.197647 302.887267
L 140.905714 308.357133
L 146.029915 311.045147
L 147.737982 308.535453
L 149.446049 324.951094
L 151.154116 319.012619
L 152.862183 329.489399
L 157.986384 323.928989
L 159.694451 303.531209
L 161.402518 311.041586
L 163.110585 309.931739
L 164.818653 307.613369
L 169.942854 311.232975
L 171.650921 316.423277
L 173.358988 313.827674
L 175.067055 312.434898
L 176.775122 305.481111
L 181.899323 307.150939
L 183.60739 309.75074
L 185.315457 300.571546
L 187.023524 288.252439
L 188.731591 295.297296
L 193.855792 284.818258
L 195.563859 286.395696
L 197.271926 292.696597
L 198.979993 284.069954
L 200.68806 280.824891
L 205.812261 288.800354
L 207.520328 287.871972
L 209.228395 293.434905
L 210.936463 288.057904
L 219.476798 289.910263
L 221.184865 303.63151
L 222.892932 301.222288
L 224.600999 301.494786
L 229.7252 298.892754
L 231.433267 302.874201
L 233.141334 307.047145
L 234.849401 308.066888
L 236.557468 308.438802
L 241.681669 304.26383
L 243.389736 303.056725
L 245.097803 303.798948
L 246.80587 298.789687
L 248.513937 296.376552
L 253.638138 295.449354
L 255.346205 291.747616
L 257.054272 286.08587
L 258.76234 293.599533
L 260.470407 296.014878
L 267.302675 294.52846
L 269.010742 298.228484
L 270.718809 304.537535
L 272.426876 299.895751
L 277.551077 306.197728
L 279.259144 306.748853
L 280.967211 309.432878
L 282.675278 304.611907
L 284.383345 294.233791
L 289.507546 294.608413
L 291.215613 289.97039
L 292.92368 290.248445
L 294.631747 289.598825
L 296.339814 291.358148
L 303.172082 292.377891
L 304.88015 288.946257
L 306.588217 285.607354
L 308.296284 290.985081
L 313.420485 289.494968
L 315.128552 291.346249
L 316.836619 288.007862
L 318.544686 287.081499
L 320.252753 284.024074
L 320.252753 277.254116
L 320.252753 277.254116
L 318.544686 277.254116
L 316.836619 277.254116
L 315.128552 277.254116
L 313.420485 277.254116
L 308.296284 277.254116
L 306.588217 277.254116
L 304.88015 277.254116
L 303.172082 277.254116
L 296.339814 277.254116
L 294.631747 277.254116
L 292.92368 277.254116
L 291.215613 277.254116
L 289.507546 277.254116
L 284.383345 277.254116
L 282.675278 277.254116
L 280.967211 277.254116
L 279.259144 277.254116
L 277.551077 277.254116
L 272.426876 277.254116
L 270.718809 277.254116
L 269.010742 277.254116
L 267.302675 277.254116
L 260.470407 277.254116
L 258.76234 277.254116
L 257.054272 277.254116
L 255.346205 277.254116
L 253.638138 277.254116
L 248.513937 277.254116
L 246.80587 277.254116
L 245.097803 277.254116
L 243.389736 277.254116
L 241.681669 277.254116
L 236.557468 277.254116
L 234.849401 277.254116
L 233.141334 277.254116
L 231.433267 277.254116
L 229.7252 277.254116
L 224.600999 277.254116
L 222.892932 277.254116
L 221.184865 277.254116
L 219.476798 277.254116
L 210.936463 277.254116
L 209.228395 277.254116
L 207.520328 277.254116
L 205.812261 277.254116
L 200.68806 277.254116
L 198.979993 277.254116
L 197.271926 277.254116
L 195.563859 277.254116
L 193.855792 277.254116
L 188.731591 277.254116
L 187.023524 277.254116
L 185.315457 277.254116
L 183.60739 277.254116
L 181.899323 277.254116
L 176.775122 277.254116
L 175.067055 277.254116
L 173.358988 277.254116
L 171.650921 277.254116
L 169.942854 277.254116
L 164.818653 277.254116
L 163.110585 277.254116
L 161.402518 277.254116
L 159.694451 277.254116
L 157.986384 277.254116
L 152.862183 277.254116
L 151.154116 277.254116
L 149.446049 277.254116
L 147.737982 277.254116
L 146.029915 277.254116
L 140.905714 277.254116
L 139.197647 277.254116
L 137.48958 277.254116
L 135.781513 277.254116
L 134.073446 277.254116
L 128.949245 277.254116
L 127.241178 277.254116
L 125.533111 277.254116
L 123.825044 277.254116
L 122.116977 277.254116
L 116.992776 277.254116
L 115.284708 277.254116
L 113.576641 277.254116
L 111.868574 277.254116
L 110.160507 277.254116
L 105.036306 277.254116
L 103.328239 277.254116
L 101.620172 277.254116
L 99.912105 277.254116
L 98.204038 277.254116
L 93.079837 277.254116
L 91.37177 277.254116
L 89.663703 277.254116
L 87.955636 277.254116
L 86.247569 277.254116
L 81.123368 277.254116
L 79.415301 277.254116
L 77.707234 277.254116
L 75.999167 277.254116
L 74.2911 277.254116
L 69.166898 277.254116
L 67.458831 277.254116
L 65.750764 277.254116
L 64.042697 277.254116
L 62.33463 277.254116
L 57.210429 277.254116
z
" clip-path="url(#pdf4d5c2543)" style="fill: #b8702f; fill-opacity: 0.12; stroke: #b8702f; stroke-opacity: 0.12"/>
    <path d="M 337.333423 277.254116
L 337.333423 279.386096
L 339.04149 279.201368
L 340.749557 277.344495
L 340.749557 277.254116
L 340.749557 277.254116
L 339.04149 277.254116
L 337.333423 277.254116
z
" clip-path="url(#pdf4d5c2543)" style="fill: #b8702f; fill-opacity: 0.12; stroke: #b8702f; stroke-opacity: 0.12"/>
    <path d="M 450.065848 277.254116
L 450.065848 278.538175
L 451.773915 286.976906
L 456.898116 286.882611
L 458.606183 282.056223
L 460.31425 283.073863
L 462.022317 280.013448
L 463.730384 286.320645
L 463.730384 277.254116
L 463.730384 277.254116
L 462.022317 277.254116
L 460.31425 277.254116
L 458.606183 277.254116
L 456.898116 277.254116
L 451.773915 277.254116
L 450.065848 277.254116
z
" clip-path="url(#pdf4d5c2543)" style="fill: #b8702f; fill-opacity: 0.12; stroke: #b8702f; stroke-opacity: 0.12"/>
    <path d="M 473.978786 277.254116
L 473.978786 277.976183
L 475.686853 279.089081
L 480.811054 280.197507
L 482.519121 281.676306
L 484.227188 288.172176
L 485.935255 279.366903
L 487.643322 278.629025
L 487.643322 277.254116
L 487.643322 277.254116
L 485.935255 277.254116
L 484.227188 277.254116
L 482.519121 277.254116
L 480.811054 277.254116
L 475.686853 277.254116
L 473.978786 277.254116
z
" clip-path="url(#pdf4d5c2543)" style="fill: #b8702f; fill-opacity: 0.12; stroke: #b8702f; stroke-opacity: 0.12"/>
   </g>
   <g id="line2d_42">
    <path d="M 57.210429 310.310233
L 62.33463 321.155463
L 64.042697 330.421764
L 65.750764 323.467475
L 67.458831 317.444735
L 69.166898 323.748191
L 74.2911 328.101436
L 75.999167 332.090487
L 77.707234 333.203031
L 79.415301 331.815062
L 81.123368 325.234094
L 86.247569 330.614724
L 87.955636 335.529852
L 89.663703 341.842512
L 91.37177 344.354545
L 93.079837 361.137818
L 98.204038 371.891692
L 99.912105 354.549677
L 101.620172 358.445515
L 103.328239 371.039383
L 105.036306 323.925162
L 110.160507 309.2782
L 111.868574 320.773057
L 113.576641 323.928518
L 115.284708 297.501224
L 116.992776 301.582557
L 122.116977 306.773731
L 123.825044 308.16461
L 125.533111 310.753082
L 127.241178 308.530994
L 128.949245 303.441286
L 134.073446 298.337964
L 135.781513 298.528974
L 137.48958 304.464953
L 139.197647 302.887267
L 140.905714 308.357133
L 146.029915 311.045147
L 147.737982 308.535453
L 149.446049 324.951094
L 151.154116 319.012619
L 152.862183 329.489399
L 157.986384 323.928989
L 159.694451 303.531209
L 161.402518 311.041586
L 163.110585 309.931739
L 164.818653 307.613369
L 169.942854 311.232975
L 171.650921 316.423277
L 173.358988 313.827674
L 175.067055 312.434898
L 176.775122 305.481111
L 181.899323 307.150939
L 183.60739 309.75074
L 185.315457 300.571546
L 187.023524 288.252439
L 188.731591 295.297296
L 193.855792 284.818258
L 195.563859 286.395696
L 197.271926 292.696597
L 198.979993 284.069954
L 200.68806 280.824891
L 205.812261 288.800354
L 207.520328 287.871972
L 209.228395 293.434905
L 210.936463 288.057904
L 219.476798 289.910263
L 221.184865 303.63151
L 222.892932 301.222288
L 224.600999 301.494786
L 229.7252 298.892754
L 233.141334 307.047145
L 234.849401 308.066888
L 236.557468 308.438802
L 241.681669 304.26383
L 243.389736 303.056725
L 245.097803 303.798948
L 246.80587 298.789687
L 248.513937 296.376552
L 253.638138 295.449354
L 255.346205 291.747616
L 257.054272 286.08587
L 258.76234 293.599533
L 260.470407 296.014878
L 267.302675 294.52846
L 269.010742 298.228484
L 270.718809 304.537535
L 272.426876 299.895751
L 277.551077 306.197728
L 279.259144 306.748853
L 280.967211 309.432878
L 282.675278 304.611907
L 284.383345 294.233791
L 289.507546 294.608413
L 291.215613 289.97039
L 292.92368 290.248445
L 294.631747 289.598825
L 296.339814 291.358148
L 303.172082 292.377891
L 306.588217 285.607354
L 308.296284 290.985081
L 313.420485 289.494968
L 315.128552 291.346249
L 316.836619 288.007862
L 318.544686 287.081499
L 320.252753 284.024074
L 325.376954 274.285153
L 327.085021 275.767974
L 328.793088 267.243037
L 330.501155 267.427081
L 332.209222 270.576078
L 337.333423 279.386096
L 339.04149 279.201368
L 340.749557 277.344495
L 344.165691 265.290255
L 349.289892 267.513525
L 350.997959 264.739284
L 352.706027 258.528091
L 354.414094 258.898805
L 356.122161 260.658791
L 361.246362 258.431808
L 362.954429 256.853654
L 364.662496 257.879022
L 366.370563 261.403343
L 368.07863 264.554754
L 373.202831 262.04966
L 374.910898 264.461661
L 376.618965 258.716235
L 378.327032 261.398935
L 380.035099 261.026383
L 385.1593 261.952527
L 386.867367 262.785218
L 388.575434 264.269547
L 390.283501 265.196496
L 391.991568 256.203355
L 397.115769 258.608
L 398.823837 261.38461
L 400.531904 265.001514
L 402.239971 260.088962
L 403.948038 258.330004
L 409.072239 261.849763
L 410.780306 259.442522
L 412.488373 258.422363
L 414.19644 261.479106
L 415.904507 262.498412
L 421.028708 261.103673
L 422.736775 271.023032
L 424.444842 271.487632
L 426.152909 271.479419
L 427.860976 273.897605
L 432.985177 272.783008
L 436.401311 276.120252
L 438.109378 271.020475
L 439.817445 272.497412
L 444.941646 274.436902
L 446.649714 273.338271
L 448.357781 275.754746
L 450.065848 278.538175
L 451.773915 286.976906
L 456.898116 286.882611
L 458.606183 282.056223
L 460.31425 283.073863
L 462.022317 280.013448
L 463.730384 286.320645
L 470.562652 274.728138
L 472.270719 275.10038
L 473.978786 277.976183
L 475.686853 279.089081
L 480.811054 280.197507
L 482.519121 281.676306
L 484.227188 288.172176
L 485.935255 279.366903
L 487.643322 278.629025
L 487.643322 278.629025
" clip-path="url(#pdf4d5c2543)" style="fill: none; stroke: #1b6f78; stroke-width: 1.7; stroke-linecap: square"/>
   </g>
   <g id="line2d_43">
    <path d="M 57.210429 308.905133
L 62.33463 320.774264
L 64.042697 328.687018
L 65.750764 324.730641
L 67.458831 316.817887
L 69.166898 324.730641
L 74.2911 328.687018
L 75.999167 332.643396
L 77.707234 332.643396
L 81.123368 324.730641
L 86.247569 328.687018
L 87.955636 336.599773
L 91.37177 344.512527
L 93.079837 360.338035
L 98.204038 372.207167
L 99.912105 352.425281
L 101.620172 356.381658
L 103.328239 368.25079
L 105.036306 324.730641
L 110.160507 308.905133
L 111.868574 320.774264
L 113.576641 324.730641
L 115.284708 297.036002
L 116.992776 300.992379
L 122.116977 304.948756
L 123.825044 308.905133
L 127.241178 308.905133
L 128.949245 300.992379
L 134.073446 297.036002
L 135.781513 297.036002
L 137.48958 304.948756
L 139.197647 300.992379
L 140.905714 308.905133
L 147.737982 308.905133
L 149.446049 324.730641
L 151.154116 316.817887
L 152.862183 328.687018
L 157.986384 324.730641
L 159.694451 304.948756
L 161.402518 308.905133
L 169.942854 308.905133
L 171.650921 316.817887
L 173.358988 312.86151
L 175.067055 312.86151
L 176.775122 304.948756
L 181.899323 308.905133
L 183.60739 308.905133
L 185.315457 300.992379
L 187.023524 285.16687
L 188.731591 289.123247
L 193.855792 281.210493
L 195.563859 281.210493
L 197.271926 289.123247
L 200.68806 281.210493
L 205.812261 289.123247
L 207.520328 289.123247
L 209.228395 293.079624
L 210.936463 289.123247
L 219.476798 289.123247
L 221.184865 304.948756
L 222.892932 300.992379
L 224.600999 300.992379
L 229.7252 297.036002
L 231.433267 300.992379
L 233.141334 308.905133
L 236.557468 308.905133
L 241.681669 304.948756
L 243.389736 300.992379
L 245.097803 304.948756
L 246.80587 297.036002
L 248.513937 297.036002
L 253.638138 293.079624
L 257.054272 285.16687
L 258.76234 293.079624
L 267.302675 293.079624
L 269.010742 297.036002
L 270.718809 304.948756
L 272.426876 297.036002
L 277.551077 304.948756
L 279.259144 304.948756
L 280.967211 308.905133
L 282.675278 304.948756
L 284.383345 293.079624
L 289.507546 293.079624
L 291.215613 289.123247
L 304.88015 289.123247
L 306.588217 285.16687
L 308.296284 289.123247
L 316.836619 289.123247
L 318.544686 285.16687
L 320.252753 285.16687
L 325.376954 273.297739
L 327.085021 273.297739
L 328.793088 265.384985
L 330.501155 265.384985
L 332.209222 269.341362
L 337.333423 277.254116
L 340.749557 277.254116
L 342.457624 273.297739
L 344.165691 265.384985
L 350.997959 265.384985
L 352.706027 257.47223
L 361.246362 257.47223
L 362.954429 253.515853
L 368.07863 265.384985
L 373.202831 261.428608
L 374.910898 265.384985
L 376.618965 257.47223
L 378.327032 261.428608
L 388.575434 261.428608
L 390.283501 265.384985
L 391.991568 253.515853
L 397.115769 257.47223
L 400.531904 265.384985
L 402.239971 257.47223
L 403.948038 257.47223
L 409.072239 261.428608
L 410.780306 257.47223
L 412.488373 257.47223
L 414.19644 261.428608
L 421.028708 261.428608
L 422.736775 273.297739
L 424.444842 277.254116
L 436.401311 277.254116
L 438.109378 273.297739
L 439.817445 277.254116
L 448.357781 277.254116
L 450.065848 281.210493
L 451.773915 289.123247
L 456.898116 289.123247
L 458.606183 285.16687
L 460.31425 285.16687
L 462.022317 281.210493
L 463.730384 289.123247
L 470.562652 277.254116
L 472.270719 277.254116
L 473.978786 281.210493
L 480.811054 281.210493
L 482.519121 285.16687
L 484.227188 293.079624
L 485.935255 281.210493
L 487.643322 281.210493
L 487.643322 281.210493
" clip-path="url(#pdf4d5c2543)" style="fill: none; stroke-dasharray: 4.07,1.76; stroke-dashoffset: 0; stroke: #b8702f; stroke-width: 1.1"/>
   </g>
   <g id="line2d_44">
    <path d="M 55.502362 277.254116
L 494.475591 277.254116
" clip-path="url(#pdf4d5c2543)" style="fill: none; stroke: #1f2a30; stroke-width: 0.8; stroke-linecap: square"/>
   </g>
   <g id="patch_8">
    <path d="M 55.502362 378.141732
L 55.502362 247.581288
" style="fill: none; stroke: #1f2a30; stroke-width: 0.65; stroke-linejoin: miter; stroke-linecap: square"/>
   </g>
   <g id="patch_9">
    <path d="M 494.475591 378.141732
L 494.475591 247.581288
" style="fill: none; stroke: #1f2a30; stroke-width: 0.65; stroke-linejoin: miter; stroke-linecap: square"/>
   </g>
   <g id="patch_10">
    <path d="M 55.502362 378.141732
L 494.475591 378.141732
" style="fill: none; stroke: #1f2a30; stroke-width: 0.65; stroke-linejoin: miter; stroke-linecap: square"/>
   </g>
   <g id="patch_11">
    <path d="M 55.502362 247.581288
L 494.475591 247.581288
" style="fill: none; stroke: #1f2a30; stroke-width: 0.65; stroke-linejoin: miter; stroke-linecap: square"/>
   </g>
   <g id="text_29">
    <!-- Pt–Fe/Al$_2$O$_3$ $-$ CuO/CeO$_2$ -->
    <g style="fill: #1f2a30" transform="translate(385.035591 241.053265)">
     <text>
      <tspan x="0" y="-0.40625" style="font-size: 9.5px; font-family: 'Malgun Gothic'; fill: #1f2a30">P</tspan>
      <tspan x="5.422607" y="-0.40625" style="font-size: 9.5px; font-family: 'Malgun Gothic'; fill: #1f2a30">t</tspan>
      <tspan x="8.69751" y="-0.40625" style="font-size: 9.5px; font-family: 'Malgun Gothic'; fill: #1f2a30">–</tspan>
      <tspan x="13.572754" y="-0.40625" style="font-size: 9.5px; font-family: 'Malgun Gothic'; fill: #1f2a30">F</tspan>
      <tspan x="18.308838" y="-0.40625" style="font-size: 9.5px; font-family: 'Malgun Gothic'; fill: #1f2a30">e</tspan>
      <tspan x="23.392822" y="-0.40625" style="font-size: 9.5px; font-family: 'Malgun Gothic'; fill: #1f2a30">/</tspan>
      <tspan x="27.154785" y="-0.40625" style="font-size: 9.5px; font-family: 'Malgun Gothic'; fill: #1f2a30">A</tspan>
      <tspan x="33.407715" y="-0.40625" style="font-size: 9.5px; font-family: 'Malgun Gothic'; fill: #1f2a30">l</tspan>
      <tspan x="40.082463" y="-0.40625" style="font-size: 9.5px; font-family: 'Malgun Gothic'; fill: #1f2a30">O</tspan>
      <tspan x="51.766977" y="-0.40625" style="font-size: 9.5px; font-family: 'Malgun Gothic'; fill: #1f2a30"> </tspan>
      <tspan x="60.654672" y="-0.40625" style="font-size: 9.5px; font-family: 'Malgun Gothic'; fill: #1f2a30"> </tspan>
      <tspan x="63.994516" y="-0.40625" style="font-size: 9.5px; font-family: 'Malgun Gothic'; fill: #1f2a30">C</tspan>
      <tspan x="70.024789" y="-0.40625" style="font-size: 9.5px; font-family: 'Malgun Gothic'; fill: #1f2a30">u</tspan>
      <tspan x="75.516977" y="-0.40625" style="font-size: 9.5px; font-family: 'Malgun Gothic'; fill: #1f2a30">O</tspan>
      <tspan x="82.864633" y="-0.40625" style="font-size: 9.5px; font-family: 'Malgun Gothic'; fill: #1f2a30">/</tspan>
      <tspan x="86.626596" y="-0.40625" style="font-size: 9.5px; font-family: 'Malgun Gothic'; fill: #1f2a30">C</tspan>
      <tspan x="92.65687" y="-0.40625" style="font-size: 9.5px; font-family: 'Malgun Gothic'; fill: #1f2a30">e</tspan>
      <tspan x="97.740854" y="-0.40625" style="font-size: 9.5px; font-family: 'Malgun Gothic'; fill: #1f2a30">O</tspan>
      <tspan x="35.911128" y="2.431281" style="font-size: 6.65px; font-family: 'Arial'; fill: #1f2a30">2</tspan>
      <tspan x="47.595642" y="2.431281" style="font-size: 6.65px; font-family: 'Arial'; fill: #1f2a30">3</tspan>
      <tspan x="105.254033" y="2.431281" style="font-size: 6.65px; font-family: 'Arial'; fill: #1f2a30">2</tspan>
      <tspan x="55.106821" y="-0.40625" style="font-size: 9.5px; font-family: 'Arial'; fill: #1f2a30">−</tspan>
     </text>
    </g>
   </g>
   <g id="text_30">
    <text style="font-size: 10.5px; font-family: 'Malgun Gothic'; text-anchor: start; fill: #1f2a30" x="55.502362" y="237.581288" transform="rotate(-0 55.502362 237.581288)">(b) CO 선택 산화</text>
   </g>
  </g>
  <g id="legend_1">
   <g id="line2d_45">
    <path d="M 184.238374 19.257542
L 194.238374 19.257542
L 204.238374 19.257542
" style="fill: none; stroke: #1b6f78; stroke-width: 1.7; stroke-linecap: square"/>
   </g>
   <g id="text_31">
    <text style="font-size: 10px; font-family: 'Malgun Gothic'; text-anchor: start; fill: #1f2a30" x="212.238374" y="22.757542" transform="rotate(-0 212.238374 22.757542)">비가격 점수 고정</text>
   </g>
   <g id="line2d_46">
    <path d="M 309.269624 19.257542
L 319.269624 19.257542
L 329.269624 19.257542
" style="fill: none; stroke-dasharray: 4.07,1.76; stroke-dashoffset: 0; stroke: #b8702f; stroke-width: 1.1"/>
   </g>
   <g id="text_32">
    <text style="font-size: 10px; font-family: 'Malgun Gothic'; text-anchor: start; fill: #1f2a30" x="337.269624" y="22.757542" transform="rotate(-0 337.269624 22.757542)">앱 점수</text>
   </g>
  </g>
 </g>
 <defs>
  <clipPath id="paaf070b288">
   <rect x="55.502362" y="45.212598" width="438.973228" height="130.560445"/>
  </clipPath>
  <clipPath id="pdf4d5c2543">
   <rect x="55.502362" y="247.581288" width="438.973228" height="130.560445"/>
  </clipPath>
 </defs>
</svg>
